<svg xmlns="http://www.w3.org/2000/svg" width="500" height="500" style="width:100%;height:100%"><defs><clipPath id="b"><path d="M0 0h500v500H0z"/></clipPath><filter id="a" filterUnits="objectBoundingBox" x="0%" y="0%" width="100%" height="100%"><feComponentTransfer in="SourceGraphic"><feFuncA type="table" tableValues="1.0 0.0"/></feComponentTransfer></filter><mask id="c"><g filter="url(#a)"><g display="block"><path fill="red" d="M-16.402-16.281l-25.151-.006-.006 44.263h25.198l-.041-44.257z" transform="matrix(3.7 0 0 -3.7 250 250)"/><path stroke-linecap="round" stroke-linejoin="round" fill-opacity="0" stroke="#08A88A" stroke-width="0" d="M189.313 310.24l-93.06.022-.021-163.773h93.232l-.151 163.75z"/></g></g></mask></defs><g clip-path="url(#b)"><g mask="url(#c)" display="block"><path stroke-linecap="round" stroke-linejoin="round" stroke="#121331" stroke-width="12.950000000000001" d="M189.457 153.374s13.956-.214 23.717-.214c27.232 0 41.418-21.56 61.842-21.56h110.352c8.932 0 16.17 7.285 16.17 16.276 0 0 0 0 0 0 0 8.991-7.238 16.28-16.17 16.28h-4.397H396.432c11.906 0 21.56 9.713 21.56 21.7 0 0 0 0 0 0 0 11.989-9.654 21.705-21.56 21.705h-2.554 13.05c13.006 0 23.543 10.612 23.543 23.702 0 0 0 0 0 0 0 13.09-10.537 23.702-23.543 23.702h-1.561 1.842c12.847 0 23.262 10.486 23.262 23.418 0 0 0 0 0 0 0 12.931-10.415 23.417-23.262 23.417h-62.885c-8.168 0-14.8 6.632-14.8 14.8v62.778c0 17.949-14.548 32.497-32.497 32.497 0 0 0 0 0 0-7.119 0-12.89-5.772-12.89-12.89v-34.063c0-42.49-47.657-73.449-68.65-74.015 0 0 0 0 0 0l-13.295-.131-13.294-.132" fill="none"/></g><path stroke-linecap="round" stroke-linejoin="round" stroke="#08A88A" stroke-width="12.950000000000001" d="M189.313 310.24l-93.06.022-.021-163.773h93.232l-.151 163.75z" fill="none" display="block"/></g></svg>